<svg viewBox="0 0 226.77 79.79" xmlns="http://www.w3.org/2000/svg" xmlns:xlink="http://www.w3.org/1999/xlink" id="Layer_1" overflow="hidden"><defs></defs><path d="M42.92 28.74 55.46 28.74 55.46 15.42C55.46 11.7 53.61 9.85 49.89 9.85L48.5 9.85C44.78 9.85 42.92 11.7 42.92 15.42ZM42.92 37.23 42.92 51.88C42.92 55.6 44.78 57.45 48.5 57.45L50.12 57.45C53.84 57.45 55.7 55.6 55.7 51.88L55.7 44.68 64.29 44.68 64.29 51.53C64.29 60.94 59.53 65.7 50.12 65.7L48.26 65.7C38.86 65.7 34.1 60.94 34.1 52.63L34.1 16.87C34.1 6.36 38.86 1.6 48.26 1.6L50.12 1.6C59.53 1.6 64.29 6.36 64.29 15.77L64.29 37.23Z" fill="#464648" transform="translate(-0.11 -1.6)"/><path d="M78.85 54.09C81.0818 56.1272 83.9788 57.2825 87 57.34 90.25 57.34 92.11 55.83 92.11 52.23L92.11 15.07C92.11 11.47 90.25 9.96 87 9.96 83.9892 10.0248 81.1041 11.1795 78.88 13.21ZM70 2.3 78.83 2.3 78.83 6.36C81.6183 3.33836 85.5385 1.61375 89.65 1.6 97.19 1.6 100.91 6.6 100.91 14.03L100.91 53.27C100.91 60.7 97.19 65.7 89.65 65.7 85.5879 65.701 81.6959 64.0686 78.85 61.17L78.85 81.4 70 81.4Z" fill="#464648" transform="translate(-0.11 -1.6)"/><path d="M127.37 54.43 127.37 33.75 119.37 36.75C116.11 38.02 115.07 39.65 115.07 43.25L115.07 52.77C115.07 55.77 116.58 57.3 119.37 57.3 122.16 57.3 124.47 56.37 127.37 54.39M106.23 43.17C106.23 35.39 108.79 32.26 115.52 29.94L127.37 25.87 127.37 15.42C127.37 11.71 125.51 9.73 121.79 9.73L120.36 9.73C116.64 9.73 114.78 11.73 114.78 15.42L114.78 24.3 106.19 24.3 106.19 15.77C106.19 6.36 110.95 1.6 120.36 1.6L122 1.6C131.4 1.6 136.16 6.36 136.16 15.77L136.16 65 127.34 65 127.34 61C124.53 63.966 120.625 65.6473 116.54 65.65 109.46 65.65 106.2 61.58 106.2 54.65Z" fill="#464648" transform="translate(-0.11 -1.6)"/><path d="M171.88 65 163.06 65 163.06 14.49C163.06 11.36 161.55 9.96 158.88 9.96 156.44 9.96 153.88 10.89 150.75 13.1L150.75 65 141.93 65 141.93 2.3 150.75 2.3 150.75 6.36C153.31 3.92 156.67 1.6 161.55 1.6 166.08 1.6 169.1 3.46 170.72 6.71 173.86 4.04 177.57 1.6 182.72 1.6 189.57 1.6 193.06 5.78 193.06 12.6L193.06 65 184.23 65 184.23 14.49C184.23 11.36 182.72 9.96 180.05 9.96 177.61 9.96 175.05 10.89 171.92 13.1Z" fill="#464648" transform="translate(-0.11 -1.6)"/><path d="M22.67 6.5 22.67 18.03 7.82 32.18 22.67 46.08 22.67 57.86 0 36.55 0 28.06 22.67 6.5Z" fill="#464648"/><path d="M226.77 28.06 226.77 36.55 204.1 57.86 204.1 46.08 218.95 32.18 204.1 18.03 204.1 6.5 226.77 28.06Z" fill="#464648"/></svg>