<svg viewBox="0 0 266.15 246.18" xmlns="http://www.w3.org/2000/svg" xmlns:xlink="http://www.w3.org/1999/xlink" id="Layer_1" overflow="hidden"><defs></defs><path d="M137.87 145.93C150.484 175.789 184.914 189.768 214.773 177.155 244.631 164.541 258.611 130.11 245.997 100.252 233.384 70.3931 198.953 56.4134 169.095 69.0271 150.21 77.0048 136.857 94.2582 133.87 114.54L174.52 114.54 174.52 103.74 199.14 123.09 174.52 142.43 174.52 131.63 97.17 131.63C83.17 132.24 78.69 114.54 78.69 114.54 73.9963 97.3985 56.2953 87.3076 39.1538 92.0013 22.0123 96.695 11.9214 114.396 16.6151 131.538 21.3088 148.679 39.0098 158.77 56.1513 154.076 64.9292 151.673 72.2788 145.665 76.38 137.54" stroke="#76CDD8" stroke-width="10.2308" stroke-linecap="butt" stroke-linejoin="round" stroke-opacity="1" fill="none"/></svg>