<svg width="529" height="35" viewBox="0 0 529 35" xmlns="http://www.w3.org/2000/svg" xmlns:xlink="http://www.w3.org/1999/xlink" fill="none" overflow="hidden"><defs><clipPath id="clip0"><rect x="0" y="0" width="528.784" height="35" fill="#FFFFFF"/></clipPath></defs><g clip-path="url(#clip0)"><path d="M496.113 34.4172 499.368 34.4172 501.198 10.7362C501.333 8.91104 501.288 5.92025 501.288 5.92025L501.378 5.92025C501.378 5.92025 502.413 9.04908 503.163 10.7362L510.933 28.1135 513.993 28.1135 521.779 10.7362C522.529 9.00307 523.519 6.01227 523.519 6.01227L523.609 6.01227C523.609 6.01227 523.564 8.89571 523.699 10.7362L525.529 34.4172 528.784 34.4172 526.144 0.582822 522.799 0.582822 514.128 20.4601C513.378 22.1933 512.478 24.6012 512.478 24.6012L512.388 24.6012C512.388 24.6012 511.548 22.1933 510.783 20.4601L502.128 0.582822 498.738 0.582822 496.113 34.4172ZM454.396 22.6227C454.396 30.138 459.572 35 467.102 35 474.587 35 479.717 30.138 479.717 22.6227L479.717 0.582822 476.477 0.582822 476.477 22.4847C476.477 28.4049 472.757 31.9172 467.057 31.9172 461.357 31.9172 457.681 28.4049 457.681 22.5767L457.681 0.582822 454.381 0.582822 454.381 22.6227 454.396 22.6227ZM412.08 22.6227C412.08 30.138 417.255 35 424.785 35 432.271 35 437.401 30.138 437.401 22.6227L437.401 0.582822 434.146 0.582822 434.146 22.4847C434.146 28.4049 430.426 31.9172 424.725 31.9172 419.025 31.9172 415.35 28.4049 415.35 22.5767L415.35 0.582822 412.05 0.582822 412.05 22.6227 412.08 22.6227ZM368.818 34.4172 372.073 34.4172 372.073 10.0613C372.073 8.28221 371.788 5.4908 371.788 5.4908L371.878 5.4908C371.878 5.4908 373.483 8.37423 374.609 10.0613L391.514 34.4172 394.664 34.4172 394.664 0.582822 391.424 0.582822 391.424 24.9387C391.424 26.7178 391.709 29.5092 391.709 29.5092L391.619 29.5092C391.619 29.5092 390.014 26.6258 388.889 24.9387L371.968 0.582822 368.818 0.582822 368.818 34.4172ZM347.728 34.4172 350.983 34.4172 350.983 0.582822 347.728 0.582822 347.728 34.4172ZM319.242 34.4172 322.497 34.4172 322.497 3.55828 334.362 3.55828 334.362 0.582822 307.346 0.582822 307.346 3.57362 319.257 3.57362 319.257 34.4172 319.242 34.4172ZM268.12 34.4172 271.375 34.4172 271.375 10.0613C271.375 8.28221 271.09 5.4908 271.09 5.4908L271.18 5.4908C271.18 5.4908 272.785 8.37423 273.91 10.0613L290.816 34.4172 293.966 34.4172 293.966 0.582822 290.711 0.582822 290.711 24.9387C290.711 26.7178 290.996 29.5092 290.996 29.5092L290.906 29.5092C290.906 29.5092 289.3 26.6258 288.175 24.9387L271.27 0.582822 268.12 0.582822 268.12 34.4172ZM222.218 17.2853C222.218 9.20245 228.203 3.08282 235.689 3.08282 243.129 3.08282 249.159 9.20245 249.159 17.2853 249.159 25.5675 243.129 31.9172 235.689 31.9172 228.188 31.9172 222.218 25.5521 222.218 17.2853ZM218.828 17.2853C218.828 27.2086 226.313 35 235.689 35 245.049 35 252.549 27.1933 252.549 17.2853 252.549 7.56135 245.064 0 235.689 0 226.313 0 218.828 7.56135 218.828 17.2853ZM176.646 17.2853C176.646 27.1472 183.607 35 193.402 35 201.547 35 206.063 29.7546 206.063 29.7546L204.172 27.3926C204.172 27.3926 200.122 31.9172 193.432 31.9172 185.572 31.9172 180.022 25.3221 180.022 17.2393 180.022 9.24847 185.572 3.08282 193.342 3.08282 199.552 3.08282 203.422 6.84049 203.422 6.84049L205.163 4.3865C205.163 4.3865 201.157 0 193.252 0 183.802 0 176.646 7.45399 176.646 17.2853Z" fill="#464547"/><path d="M108.664 34.4169 114.739 34.4169 116.149 15.3065C116.284 13.0519 116.194 9.96904 116.194 9.96904L116.284 9.96904C116.284 9.96904 117.319 13.3433 118.114 15.3065L123.485 28.5427 128.81 28.5427 134.225 15.3065C135.02 13.3279 136.01 10.0151 136.01 10.0151L136.1 10.0151C136.1 10.0151 136.01 13.0519 136.145 15.3065L137.555 34.4169 143.585 34.4169 140.9 0.245117 134.405 0.245117 127.865 17.147C127.115 19.1715 126.215 22.147 126.215 22.147L126.125 22.147C126.125 22.147 125.18 19.1562 124.43 17.147L117.889 0.245117 111.394 0.245117 108.664 34.4169ZM82.2932 6.16536C82.2932 6.16536 82.9982 9.5396 83.6132 11.4568L86.5833 20.5979 77.823 20.5979 80.7931 11.4568C81.4531 9.52426 82.2032 6.16536 82.2032 6.16536L82.2932 6.16536ZM90.9035 34.4169 97.1587 34.4169 85.3983 0.245117 79.038 0.245117 67.2626 34.4169 73.5179 34.4169 76.338 25.6592 88.0684 25.6592 90.9035 34.4169ZM41.3867 17.239 41.3867 5.58254 47.1769 5.58254C50.612 5.58254 52.6821 7.85248 52.6821 11.3647 52.6821 14.923 50.612 17.239 47.0869 17.239L41.3867 17.239ZM35.3115 34.4169 41.3867 34.4169 41.3867 22.6224 48.212 22.6224C54.4672 22.6224 58.8473 18.0059 58.8473 11.3647 58.8473 4.72364 54.4672 0.245117 48.212 0.245117L35.3115 0.245117 35.3115 34.4169ZM0.000244141 34.4169 20.761 34.4169 20.761 29.0795 6.07546 29.0795 6.07546 19.8924 17.3259 19.8924 17.3259 14.5396 6.07546 14.5396 6.07546 5.58254 20.011 5.58254 20.011 0.245117 0.000244141 0.245117 0.000244141 34.4169Z" fill="#464547"/></g></svg>