<svg viewBox="0 0 266.15 246.18" xmlns="http://www.w3.org/2000/svg" xmlns:xlink="http://www.w3.org/1999/xlink" id="Layer_1" overflow="hidden"><defs></defs><path d="M160.94 159.91C130.405 190.258 81.0504 190.106 50.7026 159.572 20.3548 129.037 20.5063 79.6819 51.041 49.3342 81.5757 18.9864 130.931 19.1379 161.278 49.6726 181.12 69.6361 188.658 98.7454 181 125.83 165.68 108.07 131.28 94.19 131.28 94.19 132.53 97.5225 133.176 101.051 133.19 104.61 133.2 119.7 121.46 132 107 132 92.54 132 80.74 119.7 80.74 104.61 80.74 89.52 87.6 77.33 107 77.18 140.9 77.18 170.6 101.84 170.6 101.84 170.6 101.84 150.69 132 107 132 62.65 132 45 104.61 45 104.61 45 104.61 54.42 94.19 73.62 84.78" stroke="#76CDD8" stroke-width="9.38821" stroke-linecap="butt" stroke-linejoin="round" stroke-opacity="1" fill="none"/><path d="M179.55 178.72 227.84 227 244.36 210.48 193.76 159.89C184.667 150.9 170.033 150.9 160.94 159.89" stroke="#76CDD8" stroke-width="9.38821" stroke-linecap="butt" stroke-linejoin="round" stroke-opacity="1" fill="none"/></svg>