<svg viewBox="0 0 266.15 246.18" xmlns="http://www.w3.org/2000/svg" xmlns:xlink="http://www.w3.org/1999/xlink" id="Layer_1" overflow="hidden"><defs></defs><path d="M129.16 60C138.81 62 144.58 73.71 139.26 82.69 138.94 83.23 138.61 83.75 138.26 84.27L128.09 99.46 129.09 113.88 142.72 109.6 181.21 53.19 166.57 43.19 152.34 63.91 153.01 64.34C174.388 75.8938 182.352 102.59 170.799 123.969 159.245 145.347 132.548 153.311 111.17 141.757 96.9358 134.064 88.0721 119.18 88.09 103 88.2574 90.5553 93.5589 78.7327 102.74 70.33 108.92 64.69 117.96 59.41 126.74 59.71 127.553 59.738 128.363 59.835 129.16 60Z" stroke="#76CDD8" stroke-width="7.94032" stroke-linecap="butt" stroke-linejoin="round" stroke-opacity="1" fill="none"/><path d="M145.09 195.51 198.49 195.51C201.804 195.51 204.49 198.196 204.49 201.51L204.49 206.42C204.49 209.734 201.804 212.42 198.49 212.42L67.66 212.42C64.3463 212.42 61.66 209.734 61.66 206.42L61.66 201.51C61.66 198.196 64.3463 195.51 67.66 195.51L109.81 195.51C131.07 195.51 132.62 182.02 143.51 182.02L152.61 182.02C155.3 182.027 157.486 179.853 157.493 177.163 157.494 176.778 157.449 176.394 157.36 176.02L155.77 169.14C155.151 166.517 156.777 163.889 159.4 163.27 159.77 163.183 160.149 163.139 160.53 163.14L220.75 163.14C226.49 163.14 231.144 158.49 231.15 152.75L231.15 39.7C231.15 33.9562 226.494 29.3 220.75 29.3L45.4 29.3C39.6562 29.3 35 33.9562 35 39.7L35 152.82C35.0055 158.56 39.6601 163.21 45.4 163.21L105.62 163.21C108.315 163.204 110.505 165.385 110.51 168.08 110.511 168.46 110.467 168.84 110.38 169.21L108.79 176.09C108.166 178.706 109.781 181.333 112.397 181.957 112.771 182.046 113.155 182.091 113.54 182.09L122.74 182.09" stroke="#76CDD8" stroke-width="7.94032" stroke-linecap="butt" stroke-linejoin="round" stroke-opacity="1" fill="none"/></svg>