<svg width="56.73" height="50.84" viewBox="0 0 56.73 50.84" xmlns="http://www.w3.org/2000/svg" xmlns:xlink="http://www.w3.org/1999/xlink"><defs></defs><g><g><path d="M50.25 50.84 6.47 50.84C4.13 50.84 2.04 49.63 0.87 47.61-0.3 45.59-0.3 43.17 0.87 41.15L22.77 3.23C23.93 1.21 26.03 0 28.36 0 28.36 0 28.36 0 28.36 0 30.7 0 32.79 1.21 33.96 3.23L55.85 41.14C57.02 43.16 57.02 45.58 55.85 47.6 54.68 49.63 52.59 50.84 50.25 50.84ZM25.67 4.91 3.78 42.82C3.22 43.79 3.22 44.96 3.78 45.93 4.34 46.9 5.35 47.49 6.47 47.49L50.25 47.49C51.37 47.49 52.38 46.91 52.94 45.93 53.5 44.96 53.5 43.79 52.94 42.82L31.06 4.91C30.5 3.94 29.49 3.35 28.37 3.35 27.24 3.35 26.23 3.93 25.67 4.91L25.67 4.91Z" fill="#FFFFFF"/></g><g><path d="M28.37 13.72 28.37 13.72C30.79 13.72 32.68 15.84 32.39 18.25L30.61 33.11C30.47 34.25 29.51 35.11 28.36 35.11L28.36 35.11C27.21 35.11 26.24 34.25 26.11 33.11L24.36 18.24C24.07 15.84 25.95 13.72 28.37 13.72Z" fill="#FFFFFF"/><path d="M26.08 42.33C25.46 41.71 25.14 40.94 25.14 40.04 25.14 39.14 25.45 38.37 26.08 37.75 26.7 37.13 27.47 36.81 28.37 36.81 29.27 36.81 30.04 37.12 30.66 37.75 31.28 38.37 31.6 39.14 31.6 40.04 31.6 40.94 31.29 41.71 30.66 42.33 30.04 42.95 29.27 43.27 28.37 43.27 27.47 43.27 26.71 42.96 26.08 42.33Z" fill="#FFFFFF"/></g></g></svg>