<svg viewBox="0 0 226.77 79.79" xmlns="http://www.w3.org/2000/svg" xmlns:xlink="http://www.w3.org/1999/xlink" id="Layer_1" overflow="hidden"><defs/><path d="M43.3 30.11 55.84 30.11 55.84 16.79C55.84 13.0833 53.98 11.2267 50.26 11.22L48.87 11.22C45.15 11.22 43.3 13.08 43.3 16.79ZM43.3 38.61 43.3 53.25C43.3 56.97 45.15 58.83 48.87 58.83L50.49 58.83C54.21 58.83 56.07 56.97 56.07 53.25L56.07 46.05 64.66 46.05 64.66 52.9C64.66 62.31 59.9 67.07 50.49 67.07L48.64 67.07C39.23 67.07 34.47 62.31 34.47 54.01L34.47 18.24C34.47 7.74 39.23 3 48.64 3L50.49 3C59.9 3 64.66 7.74 64.66 17.14L64.66 38.61Z" fill="#FFFFFF" transform="translate(-0.49 -2.97)"/><path d="M79.22 55.46C81.4481 57.4904 84.3363 58.6449 87.35 58.71 90.6 58.71 92.46 57.2 92.46 53.6L92.46 16.45C92.46 12.84 90.6 11.34 87.35 11.34 84.3363 11.4051 81.4481 12.5596 79.22 14.59ZM70.39 3.67 79.22 3.67 79.22 7.74C81.9994 4.73189 85.9044 3.01485 90 3 97.54 3 101.26 8 101.26 15.42L101.26 54.65C101.26 62.08 97.54 67.07 90 67.07 85.9379 67.071 82.0459 65.4386 79.2 62.54L79.2 82.77 70.39 82.77Z" fill="#FFFFFF" transform="translate(-0.49 -2.97)"/><path d="M127.74 55.81 127.74 35.13 119.74 38.13C116.49 39.41 115.44 41.03 115.44 44.63L115.44 54.15C115.44 57.15 116.95 58.68 119.74 58.68 122.53 58.68 124.85 57.75 127.74 55.78M106.61 44.54C106.61 36.76 109.16 33.63 115.9 31.31L127.74 27.24 127.74 16.79C127.74 13.08 125.88 11.1 122.17 11.1L120.73 11.1C117.01 11.1 115.16 13.1 115.16 16.79L115.16 25.67 106.56 25.67 106.56 17.14C106.56 7.74 111.32 2.97 120.73 2.97L122.4 2.97C131.8 2.97 136.56 7.74 136.56 17.14L136.56 66.37 127.74 66.37 127.74 62.43C124.926 65.3884 121.023 67.0652 116.94 67.07 109.86 67.07 106.61 63.01 106.61 56.07Z" fill="#FFFFFF" transform="translate(-0.49 -2.97)"/><path d="M172.26 66.37 163.43 66.37 163.43 15.86C163.43 12.73 161.92 11.34 159.25 11.34 156.81 11.34 154.25 12.26 151.12 14.47L151.12 66.37 142.3 66.37 142.3 3.67 151.12 3.67 151.12 7.74C153.68 5.3 157.05 3 161.92 3 166.45 3 169.47 4.85 171.09 8.1 174.23 5.43 177.95 3 183.09 3 189.94 3 193.42 7.18 193.42 14L193.42 66.37 184.59 66.37 184.59 15.86C184.59 12.73 183.09 11.34 180.41 11.34 177.98 11.34 175.41 12.26 172.29 14.47Z" fill="#FFFFFF" transform="translate(-0.49 -2.97)"/><path d="M22.67 6.5 22.67 18.03 7.82 32.18 22.67 46.08 22.67 57.86 0 36.55 0 28.06 22.67 6.5Z" fill="#FFFFFF"/><path d="M226.77 28.06 226.77 36.55 204.1 57.86 204.1 46.08 218.95 32.18 204.1 18.03 204.1 6.5 226.77 28.06Z" fill="#FFFFFF"/></svg>