<svg viewBox="0 0 47 46.9" xmlns="http://www.w3.org/2000/svg" xmlns:xlink="http://www.w3.org/1999/xlink" overflow="hidden"><g id="Layer_1"></g><g id="Grid_Artboards"><g><g><g><path d="M22 24.3C22.5 25.7 24 26.4 25.4 25.9 26.8 25.4 27.5 23.9 27 22.5 26.5 21.1 25 20.4 23.6 20.9 22.2 21.5 21.5 23 22 24.3Z" stroke="#76CDD8" stroke-width="1.00001" stroke-linecap="butt" stroke-linejoin="round" stroke-miterlimit="10" stroke-opacity="1" fill="none"/><path d="M23.5 30.7 23.5 30.7C24 30.8 24.4 30.8 24.8 30.7L26.3 32.9 27.7 32.4 29.1 31.9 28.8 29.3C29.2 29 29.5 28.7 29.8 28.4L32.8 29 33.4 27.7 34 26.4 31.6 24.5C31.7 24.1 31.7 23.6 31.6 23.2L33.8 21.7 33.3 20.3 32.8 18.9 30.2 19.2C29.9 18.9 29.7 18.5 29.3 18.2L29.9 15.2 28.6 14.6 27.3 14 25.4 16.4C25 16.3 24.5 16.3 24.1 16.4L22.6 14 21.2 14.5 19.8 15 20.1 17.7C19.7 18 19.4 18.3 19.1 18.6L16.1 18 15.5 19.3 14.9 20.6 17.3 22.5C17.2 22.9 17.2 23.4 17.3 23.8L15 25.4 15.5 26.8 16 28.2 18.6 27.9C18.9 28.2 19.1 28.6 19.5 28.9L18.9 31.9 20.2 32.5 21.5 33.1 23.5 30.7 23.5 30.7" stroke="#76CDD8" stroke-width="1.00001" stroke-linecap="butt" stroke-linejoin="round" stroke-miterlimit="10" stroke-opacity="1" fill="none"/></g></g><path d="M24.8 11.8 24.8 7.6 29.9 7.6" stroke="#76CDD8" stroke-width="1.00001" stroke-linecap="butt" stroke-linejoin="round" stroke-miterlimit="10" stroke-opacity="1" fill="none"/><path d="M13.1 23.1 10.3 23.1 10.3 16.6" stroke="#76CDD8" stroke-width="1.00001" stroke-linecap="butt" stroke-linejoin="round" stroke-miterlimit="10" stroke-opacity="1" fill="none"/><path d="M36.1 23.8 39.3 23.8 39.3 30.1" stroke="#76CDD8" stroke-width="1.00001" stroke-linecap="butt" stroke-linejoin="round" stroke-miterlimit="10" stroke-opacity="1" fill="none"/><rect x="6.8" y="9.5" width="7.1" height="7.1" stroke="#76CDD8" stroke-width="1.00001" stroke-linecap="butt" stroke-linejoin="round" stroke-miterlimit="10" stroke-opacity="1" fill="none"/><rect x="35.8" y="31.6" width="7.1" height="7.1" stroke="#76CDD8" stroke-width="1.00001" stroke-linecap="butt" stroke-linejoin="round" stroke-miterlimit="10" stroke-opacity="1" fill="none" transform="matrix(0.7071 -0.7071 0.7071 0.7071 -13.3363 38.0889)"/><circle cx="33.5" cy="7.6" r="3.7" stroke="#76CDD8" stroke-width="1.00001" stroke-linecap="butt" stroke-linejoin="round" stroke-miterlimit="10" stroke-opacity="1" fill="none"/><path d="M24.2 35.1 24.2 38.7 15.6 38.7" stroke="#76CDD8" stroke-width="1.00001" stroke-linecap="butt" stroke-linejoin="round" stroke-miterlimit="10" stroke-opacity="1" fill="none"/><path d="M8.3 38.7 15.6 42.9 15.6 34.4Z" stroke="#76CDD8" stroke-width="1.00001" stroke-linecap="butt" stroke-linejoin="round" stroke-miterlimit="10" stroke-opacity="1" fill="none"/></g></g></svg>